<svg data-name="Layer 1" viewBox="0 0 512 512" xmlns="http://www.w3.org/2000/svg"><path d="M464.35 255.6c-1.19-86.7-54.27-164.33-135.55-195.32C247 29.09 150.45 55.1 95.1 122.79c-55.1 67.37-63.44 164.4-18.57 239.5 44.79 74.95 132.57 113.56 218.09 98.17 97.49-17.54 167.27-105.12 169.65-202.64.06-.71.09-1.46.08-2.22zM314 416.09c-67.8 24.3-144.8 3.05-190.53-52.58-45.1-54.87-50.47-134.67-14.19-195.46 36.11-60.43 108.4-93.58 177.79-80.3C367.74 103.2 425.31 174 426.43 255.6c-.98 71.01-44.85 136.27-112.43 160.49z"/><path d="M332.3 175.33l-95.75 121.84-47.71-31.23c-20.48-13.4-39.5 19.41-19.14 32.74l61.3 40.16c6.31 4.13 18 3.32 23-3l105.11-133.7c14.89-18.98-11.74-46-26.81-26.81z"/></svg>