<svg fill="#fff" viewBox="0 0 512 512" xmlns="http://www.w3.org/2000/svg"><path d="M351.5 339.3c-18.8-4.1-41.3 3.1-49.4 20.6-4.7 10.1-5.4 23.9-15.6 28.4-7.3 3.3-15.7-.4-22.7-4.3-34.4-19.2-103.4-156.4-98.2-195.5 1-7.9 3.2-16.9 10.1-20.8 9.7-5.5 21.2 2.2 32.1 4.4 18.9 4 38-9.8 46-27.3s7.1-37.8 4.4-56.9c-3.2-22.3-9.2-45.2-24-62.1-42.2-48-104.5.4-129.4 40.9-16 26.1-24.8 56-29 86.1C66.7 217 182 446.4 239 477.5c26.7 14.6 55.9 25.3 86.2 28 47.4 4.2 123.4-16.9 110.1-79.4-4.7-22-19.5-40.5-35.5-56.3-13.8-13.6-29.5-26.4-48.3-30.5z"/></svg>