<svg xmlns="http://www.w3.org/2000/svg" width="400" height="400" viewBox="0 0 400 400"><path d="M254.294 288.514c-2.513 0-5.269-.825-8.25-2.469l-67.519-49.85a3.137 3.137 0 01-1.269-2.362 3.13 3.13 0 011.031-2.475l79.975-71.97a3.118 3.118 0 014.413.232 3.124 3.124 0 01-.231 4.412l-77.125 69.413 64.087 47.35c1.694.906 4.556 2.056 6.594 1.112 2.075-.95 3.1-3.98 3.6-6.356l27.344-128.856c1.062-4.256.55-7.681-1.344-9.256-1.444-1.2-3.594-1.288-5.919-.238L118.956 199.19c-4.931 1.981-6.481 4.018-6.456 4.693.019.444 1.081 1.67 4.25 2.638l39.844 12.437 43.744-27.6a3.13 3.13 0 014.306.975 3.12 3.12 0 01-.975 4.307l-44.963 28.368a3.152 3.152 0 01-2.6.344l-41.2-12.862c-7.312-2.238-8.562-6.188-8.65-8.344-.125-2.956 1.582-7.231 10.419-10.769l160.594-61.925c4.356-1.987 9.031-1.562 12.337 1.194 3.832 3.194 5.082 8.831 3.432 15.462l-27.32 128.738c-1.15 5.487-3.537 9.106-7.106 10.744-1.343.618-2.78.925-4.318.925z" fill="#263238"/><path d="M254.294 288.514c-2.513 0-5.269-.825-8.25-2.469l-42-30.994c-1.388-1.025-1.688-2.987-.656-4.368 1.025-1.388 2.987-1.688 4.368-.657l41.65 30.769c1.694.906 4.557 2.056 6.594 1.113 2.075-.95 3.1-3.982 3.6-6.357l27.344-128.856c1.062-4.256.55-7.681-1.344-9.256-1.444-1.2-3.594-1.288-5.919-.238L118.956 199.19c-4.931 1.981-6.481 4.019-6.456 4.694.019.443 1.081 1.668 4.25 2.637l41.213 12.862a3.142 3.142 0 012.062 2.076l14.169 46.63c.381 1.044.675 2.082.931 2.982.2.713.45 1.6.619 1.862-.025-.03.475.12 1.806.125 2.794 0 3.856-1.043 5.981-3.112l10.375-10.088a3.116 3.116 0 014.419.063 3.127 3.127 0 01-.062 4.419l-10.2 9.906c-2.513 2.456-5.175 5.056-10.513 5.056-6.125 0-7.362-2.712-8.444-6.537-.218-.775-.468-1.669-.843-2.7l-13.738-45.207-39.619-12.368c-7.312-2.238-8.562-6.188-8.65-8.344-.125-2.956 1.581-7.231 10.419-10.769l160.594-61.925c4.356-1.987 9.031-1.562 12.337 1.194 3.831 3.194 5.081 8.831 3.431 15.462L265.72 276.845c-1.15 5.487-3.538 9.106-7.107 10.744-1.343.618-2.78.925-4.318.925z" fill="#263238"/><path d="M215.625 187.5a3.134 3.134 0 01-3.125 3.125 3.134 3.134 0 01-3.125-3.125 3.134 3.134 0 013.125-3.125 3.134 3.134 0 013.125 3.125z" fill="#263238"/></svg>