<svg xmlns="http://www.w3.org/2000/svg" width="400" height="400" viewBox="0 0 400 400"><path d="M241.362 254.6c-5.605 1.639-11.242 2.049-14.846 1.04-7.125-1.992-30.667-8.152-46.022-22.47-15.355-14.32-27.79-29.395-32.877-40.51s-4.809-17.711-4.527-20.82c.282-3.108 1.92-17.512 11.56-23.687 0 0 3.217-2.04 4.894-2.04h9.383s2.514.44 3.67 3.058c1.153 2.623 9.068 21.209 9.655 22.642.589 1.435 2.12 4.983-.34 8.161-2.466 3.177-7.617 9.109-7.617 9.109s-2.04 1.836-.27 4.76c1.765 2.923 7.986 12.566 16.112 19.851 8.13 7.288 18.088 12.646 23.054 14.28 4.96 1.631 6.048-.543 7.954-2.992 1.899-2.447 7.819-9.927 7.819-9.927s2.04-2.991 6.048-1.156c4.013 1.835 23.528 11.288 23.528 11.288s2.38.408 2.514 3.059 2.252 21.31-4.484 32.213c-3.847 8.339-24.69 39.44-56.567 39.584-29.433.131-55.135-16.552-55.135-16.552l-37.615 12.274 12.207-36.418S99.962 232.359 99.962 200C99.96 144.748 144.75 99.96 200 99.96s100.04 44.788 100.04 100.038c0 27.313-10.945 52.069-28.687 70.122" stroke-linecap="round" stroke="#000" stroke-width="4.92" stroke-linejoin="round" stroke-miterlimit="10" fill="none"/></svg>